<svg width="241" height="105" viewBox="0 0 241 105" fill="none" xmlns="http://www.w3.org/2000/svg">
<mask id="mask0" mask-type="alpha" maskUnits="userSpaceOnUse" x="1" y="0" width="82" height="104">
<path fill-rule="evenodd" clip-rule="evenodd" d="M1.48438 0H82.3246V103.818H1.48438V0Z" fill="white"/>
</mask>
<g mask="url(#mask0)">
<path fill-rule="evenodd" clip-rule="evenodd" d="M49.4524 57.6129V103.818H35.0603V59.3244L1.48438 0H17.9902L48.1814 54.1901L55.5182 41.0708C64.9702 24.3849 70.8968 10.6952 73.4356 0H82.3248C74.8458 12.5488 66.6633 26.6668 58.0571 42.354L49.4524 57.6129Z" fill="#5CFC61"/>
</g>
<mask id="mask1" mask-type="alpha" maskUnits="userSpaceOnUse" x="0" y="0" width="241" height="105">
<path fill-rule="evenodd" clip-rule="evenodd" d="M0.484375 105H240.484V0H0.484375V105Z" fill="white"/>
</mask>
<g mask="url(#mask1)">
<path fill-rule="evenodd" clip-rule="evenodd" d="M93.4844 104H106.484V0H93.4844V104Z" fill="#5CFC61"/>
<path fill-rule="evenodd" clip-rule="evenodd" d="M198.484 0C196.608 11.6352 195.598 26.6761 195.598 45.1211V105H194.297L127.447 14.0472V58.1761C127.447 77.4733 128.458 92.5126 130.335 103.297H121.673C123.55 91.662 124.561 76.6226 124.561 58.1761V10.0739L117.484 0.426087V0H134.956L192.71 80.0267V45.1211C192.71 25.8239 191.699 10.783 189.821 0H198.484Z" fill="#5CFC61"/>
<path fill-rule="evenodd" clip-rule="evenodd" d="M239.484 52.5C239.484 48.3585 236.127 45 231.984 45C227.841 45 224.484 48.3585 224.484 52.5C224.484 56.6415 227.841 60 231.984 60C236.127 60 239.484 56.6415 239.484 52.5" fill="#5CFC61"/>
</g>
</svg>
