<svg width="172" height="74" viewBox="0 0 172 74" fill="none" xmlns="http://www.w3.org/2000/svg">
<path fill-rule="evenodd" clip-rule="evenodd" d="M34.6385 39.9938V72.8705H24.2457V41.2116L0 -1H11.9191L33.7207 37.5584L39.0187 28.2235C45.8441 16.3508 50.1238 6.61003 51.9571 -1H58.3761C52.9754 7.92897 47.0667 17.9745 40.852 29.1365L34.6385 39.9938Z" fill="#E303F7"/>
<path fill-rule="evenodd" clip-rule="evenodd" d="M67 73H77V-1H67V73Z" fill="#E303F7"/>
<path fill-rule="evenodd" clip-rule="evenodd" d="M145 -1C143.679 7.31087 142.969 18.0543 142.969 31.2293V74H142.054L95.0109 9.0337V40.5543C95.0109 54.338 95.7224 65.0804 97.0431 72.7837H90.9475C92.2682 64.4728 92.9797 53.7304 92.9797 40.5543V6.19565L88 -0.695652V-1H100.295L140.937 56.162V31.2293C140.937 17.4457 140.225 6.70217 138.903 -1H145Z" fill="#E303F7"/>
<path fill-rule="evenodd" clip-rule="evenodd" d="M172 36.5C172 33.4629 169.538 31 166.5 31C163.462 31 161 33.4629 161 36.5C161 39.5371 163.462 42 166.5 42C169.538 42 172 39.5371 172 36.5Z" fill="#E303F7"/>
</svg>
