<svg width="143" height="144" viewBox="0 0 143 144" fill="none" xmlns="http://www.w3.org/2000/svg">
<path fill-rule="evenodd" clip-rule="evenodd" d="M71.922 0L63 0.56374L63.0775 1.82577L66.9098 1.58368L67.4278 10L68.6853 9.92045L68.1673 1.50412L72 1.26203L71.922 0Z" fill="#F0F0F0"/>
<path fill-rule="evenodd" clip-rule="evenodd" d="M80.106 4.7273C80.4696 4.48041 80.6766 4.09762 80.7273 3.57843C80.7791 3.05142 80.6449 2.63049 80.3237 2.31663C80.0031 2.00228 79.4862 1.81064 78.7741 1.74073L76.0654 1.47429L75.7467 4.7229L78.516 4.99472C79.2129 5.06316 79.7424 4.97418 80.106 4.7273ZM79.1348 0.560079C80.171 0.661766 80.9387 0.984916 81.4375 1.52904C81.9358 2.07365 82.1417 2.78791 82.0548 3.67229C82.0012 4.22375 81.8201 4.69308 81.5126 5.08076C81.2047 5.46795 80.8079 5.71973 80.3222 5.83608C80.6937 5.97052 80.966 6.17145 81.1402 6.43838C81.3145 6.70482 81.4106 7.08077 81.4282 7.56574C81.4516 7.91236 81.4516 8.37484 81.4272 8.95416C81.4111 9.28807 81.4067 9.55989 81.415 9.76962C81.4228 9.97935 81.4614 10.1896 81.5307 10.4013L81.5209 10.4985L80.2217 10.3709C80.1656 10.1935 80.1319 9.99352 80.1207 9.77108C80.1099 9.54913 80.1085 9.2294 80.1163 8.81288C80.1197 8.36262 80.1217 8.05169 80.1221 7.8796C80.1109 7.41175 80.0607 7.06708 79.9723 6.84562C79.8835 6.62367 79.7234 6.46283 79.4921 6.36212C79.2612 6.2619 78.8981 6.1871 78.4042 6.1387L75.635 5.86639L75.2416 9.88157L73.9785 9.7574L74.92 0.145508L79.1348 0.560079Z" fill="#F0F0F0"/>
<path fill-rule="evenodd" clip-rule="evenodd" d="M84.8799 9.34101C84.7295 8.64435 84.77 7.87583 85.0009 7.03496L86.488 1.625L87.7233 1.96575L86.2396 7.36397C85.9892 8.27525 86.0312 9.05208 86.3655 9.69349C86.6998 10.3354 87.2943 10.7739 88.1493 11.01C89.0039 11.2457 89.7414 11.1743 90.3602 10.7954C90.9791 10.4165 91.4139 9.77122 91.6638 8.85995L93.1475 3.46173L94.3715 3.79954L92.8844 9.20901C92.535 10.4821 91.9205 11.3821 91.0415 11.9086C90.1621 12.4356 89.1113 12.5305 87.8872 12.1926C87.0561 11.9634 86.3845 11.605 85.8726 11.1176C85.3611 10.6297 85.0307 10.0377 84.8799 9.34101Z" fill="#F0F0F0"/>
<path fill-rule="evenodd" clip-rule="evenodd" d="M95.1836 12.967C95.1036 12.3711 95.2124 11.7561 95.5102 11.122L96.7801 11.7194C96.5082 12.3569 96.4941 12.947 96.7386 13.4896C96.9826 14.0323 97.4658 14.4738 98.1866 14.813C98.8865 15.1425 99.4932 15.2525 100.008 15.1435C100.522 15.0345 100.9 14.7216 101.142 14.2054C101.301 13.8661 101.323 13.5566 101.207 13.277C101.091 12.9973 100.896 12.7461 100.623 12.5226C100.351 12.2997 99.9646 12.0303 99.4653 11.7145C98.8148 11.2999 98.3057 10.9299 97.9377 10.6033C97.5693 10.2767 97.3145 9.87095 97.1734 9.38598C97.0329 8.90101 97.1129 8.33782 97.4136 7.69591C97.6425 7.20948 97.9807 6.84184 98.4297 6.59398C98.8787 6.34611 99.4019 6.23221 99.9993 6.25225C100.597 6.27229 101.219 6.43509 101.867 6.74015C102.523 7.04864 103.051 7.43925 103.454 7.91249C103.857 8.38573 104.102 8.90198 104.19 9.46126C104.279 10.0205 104.195 10.5735 103.938 11.1191L102.702 10.5363C102.913 9.97019 102.902 9.44709 102.669 8.96798C102.435 8.48888 101.991 8.09484 101.336 7.78636C100.681 7.47787 100.112 7.37668 99.6303 7.48374C99.1491 7.58983 98.7928 7.89049 98.5605 8.38426C98.4082 8.70888 98.3926 9.00563 98.5136 9.27402C98.6352 9.54291 98.8314 9.78588 99.1017 10.0034C99.3731 10.221 99.7582 10.4879 100.257 10.8037C100.915 11.2217 101.429 11.5918 101.799 11.9145C102.169 12.2371 102.428 12.6385 102.576 13.1181C102.724 13.5972 102.651 14.1506 102.357 14.7774C102.111 15.3009 101.759 15.7023 101.299 15.9815C100.841 16.2606 100.297 16.3941 99.6689 16.3819C99.0407 16.3701 98.3662 16.1941 97.6444 15.8544C96.9304 15.518 96.3618 15.102 95.9382 14.6058C95.515 14.1091 95.2632 13.563 95.1836 12.967Z" fill="#F0F0F0"/>
<path fill-rule="evenodd" clip-rule="evenodd" d="M106.909 10.8773L107.613 9.83398L115.077 14.8822L114.373 15.9259L111.167 13.7573L106.476 20.7165L105.424 20.0052L110.115 13.0459L106.909 10.8773Z" fill="#F0F0F0"/>
<path fill-rule="evenodd" clip-rule="evenodd" d="M118.41 17.8062L112.133 25.1316L111.17 24.3039L117.447 16.9785L118.41 17.8062Z" fill="#F0F0F0"/>
<path fill-rule="evenodd" clip-rule="evenodd" d="M122.613 21.7314L120.502 31.1184L126.324 25.8341L127.184 26.7845L120.041 33.2675L119.01 32.1265L121.115 22.696L115.274 27.9964L114.422 27.0548L121.565 20.5723L122.613 21.7314Z" fill="#F0F0F0"/>
<path fill-rule="evenodd" clip-rule="evenodd" d="M123.769 34.522C124.213 33.7838 124.853 33.156 125.691 32.6383C126.507 32.1338 127.343 31.8566 128.196 31.8077C129.05 31.7588 129.85 31.9368 130.596 32.3421C131.343 32.7468 131.963 33.3516 132.459 34.1553C132.839 34.7728 133.076 35.4108 133.172 36.0698C133.267 36.7288 133.212 37.3536 133.008 37.9441C132.803 38.5347 132.457 39.0475 131.97 39.4822L131.272 38.3489C131.557 38.0673 131.752 37.7246 131.857 37.3203C131.961 36.9155 131.975 36.4883 131.898 36.0385C131.821 35.5877 131.657 35.158 131.406 34.7493C131.046 34.1666 130.598 33.7334 130.06 33.4489C129.521 33.1644 128.939 33.048 128.312 33.1003C127.685 33.1531 127.063 33.3697 126.447 33.75C125.79 34.1563 125.285 34.6359 124.933 35.1888C124.58 35.7412 124.401 36.3259 124.393 36.9434C124.387 37.5599 124.56 38.1563 124.915 38.7317C125.23 39.2446 125.622 39.6322 126.089 39.8938C126.556 40.1553 127.046 40.2834 127.558 40.2781C128.071 40.2722 128.556 40.1373 129.015 39.8733L127.33 37.1385L128.275 36.5547L130.651 40.4125L126.384 43.049L125.795 42.0923L127.169 41.2289C125.813 41.3394 124.711 40.7044 123.861 39.3252C123.374 38.5347 123.127 37.7212 123.117 36.8847C123.109 36.0478 123.326 35.2602 123.769 34.522Z" fill="#F0F0F0"/>
<path fill-rule="evenodd" clip-rule="evenodd" d="M140.655 53.6553L139.55 54.0068L137.781 48.4253L134.977 49.317L136.618 54.4908L135.489 54.8496L133.849 49.6763L129.697 50.9973L129.312 49.7848L138.502 46.8623L140.655 53.6553Z" fill="#F0F0F0"/>
<path fill-rule="evenodd" clip-rule="evenodd" d="M133.83 59.0337C134.408 58.6177 135.127 58.3488 135.989 58.2256L141.533 57.4346L141.714 58.7052L136.181 59.4942C135.248 59.6277 134.553 59.9758 134.1 60.5385C133.645 61.1012 133.481 61.8223 133.606 62.7013C133.731 63.5803 134.09 64.2285 134.683 64.6461C135.277 65.0636 136.04 65.2058 136.974 65.0724L142.507 64.2833L142.686 65.5417L137.141 66.3327C135.837 66.519 134.768 66.3131 133.936 65.7157C133.104 65.1183 132.597 64.1909 132.418 62.9325C132.297 62.0775 132.357 61.3178 132.599 60.6534C132.842 59.9895 133.252 59.4497 133.83 59.0337Z" fill="#F0F0F0"/>
<path fill-rule="evenodd" clip-rule="evenodd" d="M142.872 71.6049L134.825 76.8579L142.676 77.1366L142.631 78.4189L133 78.0772L133.055 76.5382L141.127 71.2495L133.251 70.9698L133.296 69.7002L142.927 70.0419L142.872 71.6049Z" fill="#F0F0F0"/>
<path fill-rule="evenodd" clip-rule="evenodd" d="M133.008 86.0414C133.583 85.8689 134.206 85.8801 134.878 86.0752L134.488 87.4255C133.816 87.2558 133.233 87.335 132.736 87.6616C132.239 87.9882 131.879 88.5352 131.658 89.3023C131.443 90.0459 131.429 90.6638 131.617 91.1551C131.806 91.6465 132.173 91.9716 132.72 92.1304C133.079 92.2346 133.388 92.2077 133.646 92.0493C133.903 91.8904 134.12 91.6587 134.298 91.3541C134.475 91.049 134.68 90.6247 134.914 90.0815C135.22 89.3732 135.506 88.8114 135.77 88.3954C136.034 87.9803 136.394 87.6645 136.85 87.4489C137.307 87.2338 137.875 87.2245 138.554 87.422C139.07 87.5716 139.485 87.8493 139.8 88.2541C140.115 88.6594 140.31 89.159 140.383 89.7535C140.457 90.3475 140.394 90.9894 140.195 91.6777C139.993 92.3749 139.691 92.9591 139.288 93.4318C138.884 93.9041 138.413 94.2282 137.876 94.4033C137.338 94.5778 136.78 94.5817 136.202 94.4135L136.582 93.0989C137.174 93.2197 137.688 93.1268 138.124 92.8207C138.56 92.5142 138.878 92.0126 139.08 91.3165C139.281 90.6193 139.292 90.0415 139.111 89.5819C138.931 89.1219 138.579 88.8163 138.055 88.6643C137.712 88.5646 137.416 88.5958 137.17 88.7577C136.925 88.9195 136.716 89.1517 136.544 89.4538C136.372 89.756 136.169 90.1788 135.936 90.722C135.627 91.4382 135.342 92.0048 135.082 92.4213C134.822 92.8379 134.467 93.1571 134.017 93.3786C133.568 93.6005 133.011 93.6152 132.347 93.4221C131.792 93.2612 131.341 92.9757 130.994 92.5651C130.647 92.1544 130.43 91.6377 130.343 91.0143C130.257 90.391 130.324 89.6958 130.546 88.9288C130.766 88.1695 131.087 87.5413 131.51 87.0451C131.934 86.5484 132.432 86.214 133.008 86.0414Z" fill="#F0F0F0"/>
<path fill-rule="evenodd" clip-rule="evenodd" d="M134.541 102.173L131.221 98.2987L129.448 101.974L134.541 102.173ZM135.399 103.457L124.873 103.084L125.484 101.819L128.132 101.92L130.362 97.2989L128.638 95.2833L129.248 94.0176L136.078 102.049L135.399 103.457Z" fill="#F0F0F0"/>
<path fill-rule="evenodd" clip-rule="evenodd" d="M127.422 116.195L126.477 115.521L129.866 110.751L127.471 109.043L124.329 113.465L123.365 112.778L126.506 108.356L122.957 105.826L123.693 104.79L131.547 110.389L127.422 116.195Z" fill="#F0F0F0"/>
<path fill-rule="evenodd" clip-rule="evenodd" d="M119.926 124.264L119.063 123.418L123.151 119.233L121.058 117.182L117.269 121.06L116.423 120.231L120.212 116.352L117.988 114.173L113.858 118.4L112.994 117.554L118.012 112.418L124.902 119.171L119.926 124.264Z" fill="#F0F0F0"/>
<path fill-rule="evenodd" clip-rule="evenodd" d="M100.075 132.437L99.4805 131.411L109.295 125.702L109.889 126.727L100.075 132.437Z" fill="#F0F0F0"/>
<path fill-rule="evenodd" clip-rule="evenodd" d="M91.2459 140.415L83.9875 134.112L85.8816 141.75L84.6386 142.059L82.3145 132.689L83.8064 132.318L91.1063 138.637L89.2058 130.974L90.4376 130.668L92.7613 140.038L91.2459 140.415Z" fill="#F0F0F0"/>
<mask id="mask0" mask-type="alpha" maskUnits="userSpaceOnUse" x="70" y="133" width="11" height="11">
<path fill-rule="evenodd" clip-rule="evenodd" d="M70.4746 133.19H80.1946V143.242H70.4746V133.19Z" fill="white"/>
</mask>
<g mask="url(#mask0)">
<path fill-rule="evenodd" clip-rule="evenodd" d="M72.1521 136.475C71.894 137.086 71.7861 137.769 71.8295 138.526C71.8705 139.242 72.0536 139.872 72.3781 140.417C72.7027 140.962 73.1361 141.375 73.6778 141.659C74.2195 141.942 74.8316 142.063 75.5139 142.024C76.2045 141.984 76.8106 141.792 77.3328 141.448C77.8551 141.104 78.2479 140.642 78.5125 140.064C78.7765 139.486 78.8883 138.838 78.8473 138.122C78.8038 137.365 78.6169 136.699 78.286 136.122C77.9561 135.545 77.5105 135.105 76.9517 134.803C76.3924 134.5 75.7676 134.369 75.077 134.409C74.3947 134.448 73.8013 134.65 73.2966 135.013C72.792 135.377 72.4103 135.864 72.1521 136.475ZM79.4124 135.402C79.8707 136.147 80.1279 137.008 80.1841 137.984C80.2387 138.944 80.0811 139.813 79.7097 140.589C79.3392 141.365 78.7955 141.986 78.081 142.452C77.3665 142.918 76.5339 143.178 75.5832 143.232C74.649 143.286 73.8047 143.122 73.0492 142.742C72.2942 142.361 71.6919 141.805 71.2424 141.076C70.7934 140.347 70.5406 139.502 70.4859 138.543C70.4298 137.566 70.5826 136.681 70.9447 135.889C71.3073 135.097 71.8408 134.464 72.5475 133.991C73.2537 133.518 74.0741 133.254 75.0082 133.201C75.958 133.146 76.8155 133.313 77.5788 133.702C78.3431 134.09 78.9542 134.657 79.4124 135.402Z" fill="#F0F0F0"/>
</g>
<path fill-rule="evenodd" clip-rule="evenodd" d="M68.5446 141.976L68.4133 143.228L59.4609 142.287L59.5917 141.035L63.4376 141.439L64.3122 133.091L65.5738 133.224L64.6992 141.572L68.5446 141.976Z" fill="#F0F0F0"/>
<path fill-rule="evenodd" clip-rule="evenodd" d="M51.7337 140.555L50.3554 140.059L48.8771 134.497L44.1888 137.835L42.8223 137.343L48.6814 133.166L49.9459 129.646L51.1402 130.077L49.8751 133.597L51.7337 140.555Z" fill="#F0F0F0"/>
<path fill-rule="evenodd" clip-rule="evenodd" d="M37.1827 126.656C36.6366 127.031 36.1778 127.549 35.8084 128.21C35.4574 128.835 35.273 129.465 35.2534 130.099C35.2339 130.733 35.3764 131.315 35.681 131.846C35.985 132.377 36.4355 132.81 37.0309 133.145C37.6342 133.484 38.2486 133.649 38.8733 133.641C39.4985 133.632 40.0779 133.456 40.6113 133.111C41.1452 132.767 41.5869 132.281 41.9378 131.656C42.3083 130.995 42.5089 130.332 42.5411 129.668C42.5723 129.004 42.4342 128.393 42.1257 127.837C41.8168 127.28 41.3614 126.832 40.7582 126.493C40.1618 126.158 39.5537 126.007 38.9329 126.042C38.3116 126.076 37.7284 126.28 37.1827 126.656ZM43.8769 129.669C43.8622 130.544 43.6163 131.408 43.138 132.261C42.6685 133.099 42.0686 133.745 41.3385 134.2C40.6084 134.653 39.8163 134.884 38.9636 134.89C38.111 134.897 37.2701 134.667 36.4404 134.201C35.6244 133.741 35.0001 133.148 34.5692 132.42C34.1377 131.691 33.9284 130.898 33.942 130.042C33.9557 129.185 34.1973 128.337 34.6673 127.498C35.1451 126.645 35.7493 125.983 36.4804 125.511C37.2115 125.039 38.0017 124.794 38.8514 124.776C39.7006 124.759 40.5332 124.979 41.3492 125.438C42.1794 125.904 42.8115 126.507 43.2463 127.247C43.6807 127.987 43.891 128.794 43.8769 129.669Z" fill="#F0F0F0"/>
<path fill-rule="evenodd" clip-rule="evenodd" d="M33.6189 122.906C33.4691 123.603 33.1158 124.287 32.5589 124.957L28.9766 129.271L27.9917 128.45L31.5662 124.145C32.1694 123.418 32.451 122.694 32.4105 121.971C32.3705 121.249 32.0093 120.603 31.328 120.035C30.6457 119.467 29.9454 119.228 29.2255 119.317C28.5051 119.407 27.8438 119.814 27.2406 120.541L23.6656 124.846L22.6895 124.033L26.2723 119.719C27.1151 118.704 28.0454 118.138 29.063 118.021C30.081 117.904 31.0776 118.252 32.0533 119.065C32.7165 119.618 33.1812 120.222 33.4462 120.878C33.7112 121.533 33.7693 122.209 33.6189 122.906Z" fill="#F0F0F0"/>
<path fill-rule="evenodd" clip-rule="evenodd" d="M18.9767 113.976C18.5438 113.902 18.1299 114.035 17.7341 114.373C17.3324 114.719 17.1386 115.115 17.1533 115.564C17.1674 116.013 17.4071 116.51 17.8732 117.055L19.6433 119.126L22.1188 117.003L20.3086 114.886C19.8537 114.353 19.4101 114.05 18.9767 113.976ZM16.7965 117.657C16.1191 116.864 15.7887 116.099 15.8053 115.36C15.8219 114.621 16.1674 113.963 16.8409 113.385C17.2611 113.025 17.7165 112.812 18.2065 112.746C18.6965 112.68 19.1563 112.773 19.5872 113.026C19.4125 112.672 19.3544 112.337 19.4135 112.024C19.4725 111.711 19.6629 111.373 19.985 111.01C20.2075 110.745 20.5282 110.411 20.9455 110.01C21.1885 109.78 21.3794 109.586 21.5184 109.43C21.6575 109.273 21.7752 109.095 21.8718 108.894L21.946 108.83L22.7952 109.823C22.7132 109.991 22.599 110.158 22.4536 110.326C22.3076 110.494 22.088 110.725 21.7937 111.021C21.4804 111.343 21.2642 111.566 21.1446 111.69C20.8293 112.036 20.6273 112.319 20.5379 112.54C20.4486 112.762 20.4525 112.989 20.5501 113.222C20.6478 113.455 20.8576 113.76 21.1807 114.138L22.9904 116.256L26.05 113.631L26.8758 114.597L19.5511 120.88L16.7965 117.657Z" fill="#F0F0F0"/>
<path fill-rule="evenodd" clip-rule="evenodd" d="M8.68874 102.845L13.7796 102.589L11.9665 98.934L8.68874 102.845ZM7.15039 102.737L13.8919 94.6328L14.5161 95.8912L12.8143 97.9254L15.0945 102.521L17.7412 102.391L18.3654 103.65L7.84489 104.138L7.15039 102.737Z" fill="#F0F0F0"/>
<path fill-rule="evenodd" clip-rule="evenodd" d="M4.37871 96.4337L11.2017 90.5642L2.25811 89.6554L1.84961 88.3486L12.2881 89.4159L12.7513 90.8977L4.78721 97.7405L4.37871 96.4337Z" fill="#F0F0F0"/>
<path fill-rule="evenodd" clip-rule="evenodd" d="M0.230469 77.6765L1.42767 77.5151L2.20563 83.3181L5.10809 82.928L4.38723 77.5489L5.56051 77.3914L6.28088 82.7701L9.36539 82.3555L8.57913 76.4919L9.77682 76.3311L10.7315 83.4545L1.17681 84.7393L0.230469 77.6765Z" fill="#F0F0F0"/>
<mask id="mask1" mask-type="alpha" maskUnits="userSpaceOnUse" x="0" y="65" width="10" height="9">
<path fill-rule="evenodd" clip-rule="evenodd" d="M0 65.9424H9.84001V73.5816H0V65.9424Z" fill="white"/>
</mask>
<g mask="url(#mask1)">
<path fill-rule="evenodd" clip-rule="evenodd" d="M4.19483 67.8163C3.92298 67.4706 3.52717 67.2907 3.00642 67.277C2.47785 67.2629 2.06886 67.4271 1.77896 67.7698C1.48905 68.1125 1.33434 68.642 1.31531 69.3592L1.2421 72.0837L4.49889 72.1717L4.57356 69.3856C4.59211 68.685 4.46619 68.1619 4.19483 67.8163ZM0.114205 69.082C0.142024 68.0397 0.409478 67.2497 0.916079 66.7134C1.42268 66.1766 2.11962 65.9204 3.00544 65.9439C3.55889 65.959 4.03914 66.1062 4.44667 66.3863C4.85419 66.6664 5.13287 67.0448 5.2827 67.5215C5.39056 67.1416 5.57114 66.8546 5.82493 66.662C6.07774 66.4689 6.44525 66.3467 6.92745 66.2944C7.27055 66.2465 7.73078 66.2137 8.30913 66.1966C8.64296 66.1893 8.91432 66.1746 9.12223 66.1516C9.33014 66.1287 9.53708 66.0749 9.74303 65.9908L9.84016 65.9932L9.8055 67.301C9.63273 67.3694 9.43605 67.4173 9.21545 67.4442C8.99533 67.4706 8.67761 67.4946 8.26179 67.5161C7.81327 67.5449 7.50335 67.565 7.33253 67.5767C6.86742 67.6212 6.52724 67.6955 6.31299 67.8001C6.09873 67.9043 5.94987 68.0754 5.86593 68.314C5.78247 68.552 5.73367 68.9197 5.72049 69.4164L5.64582 72.2025L9.67129 72.3106L9.63713 73.5816L0 73.3221L0.114205 69.082Z" fill="#F0F0F0"/>
</g>
<path fill-rule="evenodd" clip-rule="evenodd" d="M2.78594 57.7233L6.96418 60.6497L7.76947 56.6482L2.78594 57.7233ZM1.63706 56.6932L11.9253 54.4336L11.6471 55.8108L9.05745 56.3725L8.04376 61.4041L10.2141 62.9274L9.93643 64.3051L1.32812 58.2263L1.63706 56.6932Z" fill="#F0F0F0"/>
<path fill-rule="evenodd" clip-rule="evenodd" d="M10.3902 51.9969C9.53419 52.0834 8.64886 51.9461 7.73327 51.5843C6.84062 51.2318 6.1183 50.7278 5.56777 50.0722C5.01676 49.4166 4.68 48.6681 4.55652 47.8273C4.43305 46.9859 4.54432 46.1255 4.89035 45.246C5.15585 44.5718 5.52385 43.9988 5.99336 43.5275C6.46335 43.0563 6.99582 42.7258 7.59076 42.5361C8.18521 42.3464 8.8026 42.3166 9.44244 42.4461L8.95438 43.6855C8.55808 43.6253 8.16715 43.6747 7.7811 43.8331C7.39554 43.9915 7.0456 44.2364 6.73178 44.5679C6.41748 44.8989 6.17247 45.2885 5.99628 45.7353C5.74542 46.3723 5.66782 46.9918 5.76348 47.5941C5.85816 48.1968 6.11439 48.7336 6.53217 49.2054C6.94946 49.6767 7.4951 50.0453 8.16862 50.3113C8.88752 50.5953 9.57324 50.7131 10.2263 50.6642C10.8793 50.6158 11.4547 50.4095 11.952 50.0453C12.4493 49.6816 12.8217 49.1849 13.0692 48.5557C13.2903 47.9949 13.3654 47.4489 13.2947 46.9174C13.2244 46.386 13.0331 45.9162 12.7217 45.509C12.4103 45.1013 12.0111 44.7923 11.5255 44.583L10.3483 47.573L9.31554 47.1648L10.9759 42.9472L15.6407 44.7898L15.2288 45.8355L13.7149 45.2508C14.6153 46.2721 14.7691 47.5369 14.1751 49.0451C13.8354 49.9089 13.3332 50.5953 12.6695 51.1042C12.0062 51.6127 11.2463 51.9104 10.3902 51.9969Z" fill="#F0F0F0"/>
<path fill-rule="evenodd" clip-rule="evenodd" d="M12.427 31.2793L13.4568 31.9114L10.4035 36.9034L12.9009 38.436L15.7311 33.8088L16.7399 34.4282L13.9097 39.0549L16.5628 40.6834L19.6482 35.6396L20.6775 36.2717L16.9298 42.3994L8.71094 37.3551L12.427 31.2793Z" fill="#F0F0F0"/>
<path fill-rule="evenodd" clip-rule="evenodd" d="M23.7443 28.7423C22.9273 28.4715 22.1747 27.9836 21.4861 27.2786C20.815 26.5918 20.3611 25.8364 20.1259 25.0127C19.8906 24.1889 19.8877 23.3676 20.1176 22.5492C20.3479 21.7308 20.8008 20.9906 21.4748 20.3297C21.9922 19.8222 22.5613 19.4497 23.1825 19.2116C23.8033 18.9735 24.4242 18.8894 25.0445 18.9593C25.6653 19.0293 26.2407 19.2546 26.7717 19.635L25.821 20.5668C25.4837 20.3497 25.1069 20.2348 24.6901 20.2216C24.2733 20.2084 23.8541 20.2891 23.4319 20.4631C23.0103 20.6372 22.6281 20.8924 22.285 21.2287C21.7965 21.7073 21.4729 22.2412 21.3143 22.8303C21.1552 23.4189 21.1708 24.0144 21.3597 24.6157C21.549 25.217 21.8965 25.7768 22.4031 26.295C22.9434 26.8479 23.5217 27.2361 24.1377 27.459C24.7536 27.6815 25.3627 27.7284 25.9654 27.5998C26.5677 27.4708 27.1099 27.1696 27.5931 26.6964C28.0236 26.275 28.3144 25.8071 28.4667 25.2928C28.6185 24.779 28.6356 24.272 28.5175 23.7724C28.3994 23.2727 28.1612 22.8279 27.8025 22.4377L25.5091 24.6861L24.7326 23.8912L27.9679 20.7198L31.4756 24.3102L30.6732 25.0963L29.5297 23.943C29.9358 25.2439 29.56 26.4612 28.4028 27.5954C27.7405 28.2452 27.0025 28.6666 26.189 28.8597C25.3759 29.0523 24.5608 29.0132 23.7443 28.7423Z" fill="#F0F0F0"/>
<path fill-rule="evenodd" clip-rule="evenodd" d="M35.0544 14.8612C35.1838 14.431 35.1003 14.0013 34.805 13.5721C34.5097 13.1428 34.1325 12.9135 33.6732 12.8842C33.214 12.8549 32.6888 13.0436 32.0997 13.4503L29.8898 14.9747L31.7366 17.662L33.9973 16.1025C34.5732 15.705 34.9256 15.2915 35.0544 14.8612ZM31.6463 12.2946C32.5029 11.7036 33.2974 11.4547 34.0285 11.5486C34.7596 11.6429 35.3765 12.0551 35.8792 12.7864C36.3863 13.5246 36.5581 14.2619 36.3931 14.9986C36.2282 15.7358 35.7206 16.3973 34.8699 16.984L32.4287 18.6682L34.6703 21.9285L33.6254 22.6491L28.1602 14.6994L31.6463 12.2946Z" fill="#F0F0F0"/>
<path fill-rule="evenodd" clip-rule="evenodd" d="M55.015 6.49414L55.4006 7.61514L44.6727 11.3199L44.2871 10.1989L55.015 6.49414Z" fill="#F0F0F0"/>
</svg>
