<svg width="135" height="137" viewBox="0 0 135 137" fill="none" xmlns="http://www.w3.org/2000/svg">
<path fill-rule="evenodd" clip-rule="evenodd" d="M67.922 0.730469L59 1.23783L59.0775 2.37366L62.9098 2.15578L63.4278 9.73047L64.6853 9.65887L64.1673 2.08418L68 1.8663L67.922 0.730469Z" fill="#E303F7"/>
<path fill-rule="evenodd" clip-rule="evenodd" d="M75.6246 5.18534C75.9678 4.95267 76.1632 4.5919 76.2111 4.10258C76.2599 3.60589 76.1332 3.20918 75.8301 2.91338C75.5274 2.61712 75.0394 2.4365 74.3672 2.37062L71.81 2.11951L71.5091 5.1812L74.1234 5.43738C74.7814 5.50188 75.2813 5.41802 75.6246 5.18534V5.18534ZM74.7077 1.2579C75.6859 1.35374 76.4106 1.6583 76.8815 2.17111C77.3519 2.68439 77.5464 3.35755 77.4643 4.19104C77.4137 4.71077 77.2427 5.15309 76.9525 5.51847C76.6617 5.88338 76.2871 6.12067 75.8287 6.23033C76.1793 6.35703 76.4364 6.5464 76.6009 6.79797C76.7654 7.04908 76.8562 7.4034 76.8727 7.86046C76.8949 8.18714 76.8949 8.62301 76.8718 9.169C76.8566 9.48369 76.8525 9.73987 76.8603 9.93753C76.8677 10.1352 76.9041 10.3333 76.9695 10.5328L76.9603 10.6245L75.7338 10.5043C75.6808 10.337 75.649 10.1486 75.6384 9.93891C75.6283 9.72973 75.6269 9.4284 75.6342 9.03584C75.6375 8.61149 75.6393 8.31845 75.6398 8.15627C75.6292 7.71533 75.5817 7.3905 75.4983 7.18178C75.4145 6.9726 75.2633 6.82101 75.0449 6.7261C74.827 6.63164 74.4842 6.56115 74.0179 6.51553L71.4036 6.25889L71.0323 10.043L69.8398 9.92601L70.7286 0.867188L74.7077 1.2579Z" fill="#E303F7"/>
<path fill-rule="evenodd" clip-rule="evenodd" d="M80.1327 9.53375C79.9908 8.87718 80.029 8.15288 80.247 7.36039L81.6509 2.26172L82.817 2.58286L81.4163 7.67047C81.18 8.52931 81.2196 9.26145 81.5352 9.86595C81.8508 10.4709 82.412 10.8842 83.2193 11.1068C84.026 11.3288 84.7222 11.2616 85.3065 10.9045C85.8907 10.5474 86.3012 9.93921 86.5371 9.08037L87.9378 3.99276L89.0934 4.31114L87.6895 9.40935C87.3596 10.6091 86.7795 11.4574 85.9497 11.9536C85.1194 12.4503 84.1274 12.5397 82.9718 12.2213C82.1872 12.0052 81.5532 11.6675 81.0699 11.2081C80.587 10.7483 80.2751 10.1903 80.1327 9.53375" fill="#E303F7"/>
<path fill-rule="evenodd" clip-rule="evenodd" d="M89.858 12.9516C89.7824 12.39 89.8852 11.8103 90.1662 11.2128L91.3651 11.7758C91.1085 12.3766 91.0951 12.9327 91.326 13.4442C91.5563 13.9556 92.0125 14.3717 92.693 14.6914C93.3537 15.002 93.9264 15.1056 94.4121 15.0029C94.8977 14.9001 95.2543 14.6053 95.4828 14.1187C95.6331 13.7989 95.6538 13.5073 95.5441 13.2437C95.4349 12.9802 95.2511 12.7434 94.9935 12.5328C94.736 12.3227 94.3715 12.0688 93.9002 11.7712C93.286 11.3805 92.8054 11.0317 92.458 10.7239C92.1102 10.4161 91.8696 10.0337 91.7365 9.57663C91.6038 9.11956 91.6793 8.58878 91.9632 7.98381C92.1793 7.52536 92.4986 7.17888 92.9225 6.94528C93.3463 6.71168 93.8403 6.60432 94.4042 6.62321C94.9682 6.6421 95.5556 6.79553 96.1675 7.08304C96.7863 7.37378 97.2853 7.74192 97.6654 8.18792C98.046 8.63393 98.2773 9.12048 98.3607 9.64758C98.4441 10.1747 98.3648 10.6958 98.1229 11.21L96.9554 10.6608C97.1554 10.1272 97.1448 9.63422 96.9245 9.18268C96.7038 8.73115 96.2846 8.35978 95.6658 8.06905C95.0474 7.77832 94.5107 7.68294 94.0559 7.78385C93.6016 7.88383 93.2653 8.16719 93.0459 8.63255C92.9022 8.93849 92.8874 9.21816 93.0017 9.47111C93.1164 9.72453 93.3017 9.95352 93.5569 10.1586C93.8131 10.3636 94.1766 10.6152 94.648 10.9128C95.2686 11.3067 95.7538 11.6555 96.103 11.9596C96.4527 12.2637 96.6969 12.642 96.8365 13.094C96.9766 13.5455 96.9075 14.0671 96.6297 14.6578C96.3979 15.1513 96.0652 15.5295 95.6317 15.7926C95.1986 16.0557 94.6857 16.1815 94.0923 16.17C93.4993 16.1589 92.8626 15.993 92.1811 15.6728C91.507 15.3558 90.9703 14.9637 90.5703 14.4961C90.1709 14.0279 89.9331 13.5133 89.858 12.9516" fill="#E303F7"/>
<path fill-rule="evenodd" clip-rule="evenodd" d="M100.928 10.9823L101.592 9.99902L108.638 14.7567L107.974 15.7404L104.948 13.6965L100.518 20.2553L99.5254 19.5849L103.955 13.0262L100.928 10.9823Z" fill="#E303F7"/>
<path fill-rule="evenodd" clip-rule="evenodd" d="M111.786 17.5115L105.86 24.4154L104.951 23.6353L110.877 16.7314L111.786 17.5115Z" fill="#E303F7"/>
<path fill-rule="evenodd" clip-rule="evenodd" d="M115.754 21.2116L113.761 30.0585L119.258 25.0782L120.069 25.9739L113.327 32.0839L112.353 31.0085L114.34 22.1206L108.826 27.1161L108.021 26.2287L114.765 20.1191L115.754 21.2116Z" fill="#E303F7"/>
<path fill-rule="evenodd" clip-rule="evenodd" d="M116.846 33.2657C117.265 32.57 117.87 31.9784 118.66 31.4905C119.431 31.015 120.219 30.7537 121.025 30.7076C121.831 30.6616 122.587 30.8293 123.291 31.2112C123.996 31.5927 124.582 32.1627 125.049 32.9202C125.408 33.5021 125.632 34.1034 125.723 34.7245C125.812 35.3456 125.761 35.9344 125.568 36.491C125.374 37.0476 125.048 37.5309 124.588 37.9405L123.929 36.8725C124.198 36.6071 124.382 36.2841 124.481 35.9031C124.58 35.5216 124.592 35.1189 124.52 34.695C124.448 34.2702 124.292 33.8652 124.055 33.48C123.716 32.9308 123.293 32.5225 122.785 32.2544C122.276 31.9862 121.727 31.8766 121.134 31.9259C120.542 31.9756 119.956 32.1797 119.374 32.5382C118.754 32.9211 118.277 33.3731 117.944 33.8942C117.612 34.4148 117.442 34.9659 117.435 35.5478C117.429 36.1288 117.593 36.691 117.928 37.2333C118.225 37.7166 118.595 38.082 119.036 38.3285C119.477 38.575 119.939 38.6957 120.423 38.6906C120.907 38.6851 121.365 38.5579 121.798 38.3091L120.208 35.7317L121.099 35.1815L123.343 38.8173L119.315 41.3021L118.758 40.4005L120.056 39.5868C118.776 39.6909 117.735 39.0924 116.932 37.7926C116.473 37.0476 116.239 36.2809 116.231 35.4925C116.222 34.7037 116.428 33.9615 116.846 33.2657" fill="#E303F7"/>
<path fill-rule="evenodd" clip-rule="evenodd" d="M132.786 51.2986L131.743 51.6299L130.073 46.3695L127.426 47.2099L128.975 52.086L127.909 52.4242L126.361 47.5486L122.441 48.7935L122.078 47.6509L130.754 44.8965L132.786 51.2986Z" fill="#E303F7"/>
<path fill-rule="evenodd" clip-rule="evenodd" d="M126.343 56.3675C126.889 55.9754 127.568 55.722 128.381 55.6058L133.616 54.8604L133.786 56.0578L128.563 56.8015C127.682 56.9273 127.026 57.2553 126.598 57.7857C126.169 58.316 126.014 58.9956 126.132 59.824C126.25 60.6525 126.589 61.2634 127.149 61.6569C127.709 62.0504 128.43 62.1844 129.312 62.0587L134.535 61.315L134.704 62.501L129.469 63.2465C128.238 63.422 127.229 63.228 126.443 62.665C125.657 62.102 125.18 61.2279 125.011 60.042C124.896 59.2361 124.953 58.5201 125.182 57.8939C125.411 57.2682 125.798 56.7596 126.343 56.3675" fill="#E303F7"/>
<path fill-rule="evenodd" clip-rule="evenodd" d="M134.88 68.216L127.284 73.1668L134.695 73.4294L134.653 74.6379L125.561 74.3159L125.612 72.8654L133.233 67.881L125.798 67.6175L125.84 66.4209L134.932 66.743L134.88 68.216Z" fill="#E303F7"/>
<path fill-rule="evenodd" clip-rule="evenodd" d="M125.568 81.8206C126.11 81.6579 126.699 81.6685 127.333 81.8524L126.965 83.125C126.331 82.9651 125.78 83.0397 125.311 83.3475C124.842 83.6553 124.502 84.1709 124.293 84.8938C124.09 85.5946 124.077 86.177 124.255 86.64C124.433 87.1031 124.78 87.4095 125.296 87.5592C125.635 87.6574 125.926 87.632 126.17 87.4827C126.413 87.333 126.618 87.1146 126.786 86.8276C126.953 86.54 127.147 86.1401 127.367 85.6282C127.656 84.9606 127.926 84.4312 128.175 84.0391C128.424 83.6479 128.764 83.3503 129.195 83.1471C129.626 82.9443 130.162 82.9356 130.804 83.1217C131.291 83.2627 131.683 83.5244 131.98 83.9059C132.277 84.2879 132.461 84.7588 132.53 85.3191C132.6 85.8789 132.541 86.4838 132.353 87.1326C132.162 87.7896 131.877 88.3402 131.496 88.7857C131.115 89.2308 130.671 89.5363 130.164 89.7013C129.656 89.8657 129.129 89.8694 128.583 89.7109L128.942 88.472C129.501 88.5858 129.986 88.4982 130.397 88.2098C130.809 87.9209 131.109 87.4482 131.3 86.7921C131.49 86.135 131.5 85.5904 131.33 85.1573C131.16 84.7238 130.827 84.4358 130.333 84.2925C130.008 84.1985 129.73 84.228 129.497 84.3805C129.266 84.533 129.068 84.7519 128.906 85.0366C128.744 85.3214 128.552 85.7199 128.332 86.2318C128.04 86.9068 127.771 87.4408 127.526 87.8334C127.28 88.2259 126.945 88.5268 126.52 88.7355C126.096 88.9447 125.571 88.9585 124.944 88.7765C124.42 88.6249 123.994 88.3559 123.666 87.9688C123.338 87.5818 123.134 87.0948 123.052 86.5073C122.97 85.9199 123.034 85.2647 123.244 84.5418C123.451 83.8262 123.754 83.2342 124.154 82.7665C124.553 82.2984 125.024 81.9832 125.568 81.8206" fill="#E303F7"/>
<path fill-rule="evenodd" clip-rule="evenodd" d="M127.014 97.0251L123.88 93.3737L122.205 96.8371L127.014 97.0251ZM127.824 98.235L117.887 97.884L118.464 96.6911L120.963 96.7864L123.069 92.4314L121.441 90.5318L122.017 89.3389L128.465 96.9081L127.824 98.235Z" fill="#E303F7"/>
<path fill-rule="evenodd" clip-rule="evenodd" d="M120.294 110.24L119.402 109.605L122.601 105.11L120.339 103.5L117.374 107.667L116.463 107.019L119.429 102.852L116.078 100.468L116.772 99.4912L124.187 104.768L120.294 110.24Z" fill="#E303F7"/>
<path fill-rule="evenodd" clip-rule="evenodd" d="M113.216 117.844L112.401 117.047L116.26 113.103L114.284 111.169L110.708 114.825L109.909 114.043L113.486 110.388L111.386 108.333L107.487 112.318L106.672 111.52L111.409 106.68L117.913 113.044L113.216 117.844Z" fill="#E303F7"/>
<path fill-rule="evenodd" clip-rule="evenodd" d="M94.4777 125.547L93.916 124.581L103.181 119.2L103.742 120.166L94.4777 125.547Z" fill="#E303F7"/>
<path fill-rule="evenodd" clip-rule="evenodd" d="M86.1407 133.066L79.2884 127.125L81.0766 134.324L79.9031 134.616L77.709 125.785L79.1175 125.435L86.009 131.39L84.2148 124.169L85.3777 123.88L87.5714 132.711L86.1407 133.066Z" fill="#E303F7"/>
<mask id="mask0" mask-type="alpha" maskUnits="userSpaceOnUse" x="66" y="126" width="10" height="10">
<path fill-rule="evenodd" clip-rule="evenodd" d="M66.5332 126.257H75.7094V135.73H66.5332V126.257Z" fill="white"/>
</mask>
<g mask="url(#mask0)">
<path fill-rule="evenodd" clip-rule="evenodd" d="M68.1169 129.352C67.8731 129.928 67.7713 130.572 67.8123 131.285C67.851 131.96 68.0238 132.554 68.3302 133.068C68.6366 133.581 69.0458 133.971 69.5572 134.238C70.0686 134.505 70.6464 134.619 71.2905 134.582C71.9425 134.545 72.5147 134.364 73.0078 134.039C73.5008 133.715 73.8717 133.28 74.1214 132.735C74.3707 132.19 74.4762 131.58 74.4375 130.905C74.3965 130.192 74.22 129.564 73.9076 129.02C73.5961 128.476 73.1755 128.061 72.6479 127.777C72.1199 127.492 71.5301 127.368 70.8782 127.405C70.234 127.442 69.6738 127.632 69.1973 127.975C68.7209 128.318 68.3606 128.777 68.1169 129.352M74.971 128.341C75.4037 129.043 75.6465 129.855 75.6995 130.775C75.7511 131.679 75.6022 132.498 75.2516 133.23C74.9019 133.961 74.3886 134.547 73.7141 134.986C73.0395 135.424 72.2535 135.669 71.356 135.721C70.4741 135.772 69.677 135.617 68.9637 135.258C68.251 134.899 67.6824 134.376 67.258 133.689C66.8342 133.002 66.5955 132.205 66.5439 131.301C66.4909 130.38 66.6351 129.547 66.977 128.801C67.3193 128.054 67.8229 127.457 68.4901 127.011C69.1568 126.565 69.9313 126.317 70.8132 126.266C71.7098 126.215 72.5194 126.372 73.24 126.739C73.9615 127.105 74.5384 127.639 74.971 128.341" fill="#E303F7"/>
</g>
<path fill-rule="evenodd" clip-rule="evenodd" d="M64.7103 134.538L64.5863 135.718L56.1348 134.831L56.2582 133.651L59.889 134.032L60.7146 126.164L61.9057 126.289L61.08 134.157L64.7103 134.538Z" fill="#E303F7"/>
<path fill-rule="evenodd" clip-rule="evenodd" d="M48.8386 133.198L47.5375 132.73L46.1419 127.489L41.7159 130.635L40.4258 130.171L45.9571 126.234L47.1509 122.917L48.2784 123.323L47.0841 126.64L48.8386 133.198Z" fill="#E303F7"/>
<path fill-rule="evenodd" clip-rule="evenodd" d="M35.1029 120.098C34.5874 120.452 34.1543 120.94 33.8055 121.563C33.4742 122.152 33.3 122.746 33.2816 123.343C33.2632 123.941 33.3977 124.49 33.6852 124.99C33.9723 125.49 34.3975 125.898 34.9597 126.214C35.5291 126.534 36.1092 126.689 36.699 126.681C37.2892 126.674 37.8361 126.507 38.3397 126.182C38.8438 125.858 39.2608 125.4 39.592 124.811C39.9418 124.188 40.1311 123.564 40.1615 122.937C40.191 122.311 40.0606 121.736 39.7694 121.211C39.4778 120.687 39.0479 120.265 38.4784 119.945C37.9154 119.629 37.3413 119.487 36.7552 119.52C36.1687 119.552 35.6181 119.744 35.1029 120.098M41.4226 122.938C41.4088 123.763 41.1766 124.577 40.725 125.381C40.2818 126.171 39.7155 126.78 39.0262 127.208C38.337 127.636 37.5892 127.853 36.7842 127.859C35.9793 127.865 35.1854 127.649 34.4021 127.209C33.6318 126.776 33.0425 126.217 32.6356 125.53C32.2283 124.844 32.0307 124.097 32.0436 123.289C32.0565 122.482 32.2845 121.683 32.7282 120.893C33.1793 120.089 33.7497 119.465 34.4399 119.02C35.1301 118.575 35.8761 118.344 36.6783 118.327C37.48 118.311 38.266 118.518 39.0364 118.95C39.8201 119.39 40.4168 119.959 40.8273 120.656C41.2374 121.353 41.436 122.114 41.4226 122.938" fill="#E303F7"/>
<path fill-rule="evenodd" clip-rule="evenodd" d="M31.738 116.564C31.5965 117.221 31.2629 117.865 30.7372 118.497L27.3553 122.563L26.4255 121.789L29.8001 117.732C30.3695 117.047 30.6354 116.364 30.5972 115.683C30.5594 115.002 30.2184 114.394 29.5752 113.858C28.9311 113.323 28.2699 113.097 27.5903 113.182C26.9102 113.266 26.2859 113.65 25.7164 114.335L22.3414 118.393L21.4199 117.627L24.8023 113.56C25.598 112.603 26.4762 112.07 27.4369 111.96C28.398 111.85 29.3388 112.178 30.2599 112.944C30.886 113.465 31.3247 114.035 31.5749 114.652C31.8251 115.27 31.8799 115.907 31.738 116.564" fill="#E303F7"/>
<path fill-rule="evenodd" clip-rule="evenodd" d="M17.9144 108.148C17.5058 108.078 17.115 108.203 16.7414 108.522C16.3622 108.848 16.1793 109.221 16.1931 109.645C16.2064 110.068 16.4327 110.536 16.8727 111.05L18.5438 113.002L20.8808 111.001L19.1718 109.005C18.7424 108.503 18.3236 108.217 17.9144 108.148V108.148ZM15.8563 111.617C15.2167 110.87 14.9048 110.148 14.9205 109.452C14.9361 108.756 15.2624 108.136 15.8982 107.591C16.2949 107.251 16.7248 107.05 17.1874 106.988C17.65 106.926 18.084 107.014 18.4908 107.252C18.3259 106.918 18.2711 106.603 18.3268 106.308C18.3826 106.013 18.5623 105.694 18.8664 105.353C19.0765 105.102 19.3792 104.788 19.7731 104.41C20.0026 104.193 20.1827 104.011 20.314 103.863C20.4453 103.715 20.5564 103.547 20.6476 103.358L20.7177 103.298L21.5194 104.234C21.442 104.392 21.3341 104.55 21.1968 104.708C21.0591 104.866 20.8517 105.084 20.5739 105.362C20.2781 105.667 20.074 105.877 19.9611 105.993C19.6635 106.319 19.4727 106.586 19.3884 106.794C19.3041 107.004 19.3078 107.217 19.3999 107.437C19.4921 107.657 19.6902 107.945 19.9952 108.301L21.7037 110.296L24.5921 107.823L25.3717 108.733L18.4567 114.654L15.8563 111.617Z" fill="#E303F7"/>
<path fill-rule="evenodd" clip-rule="evenodd" d="M8.20229 97.6572L13.0084 97.4167L11.2967 93.9717L8.20229 97.6572ZM6.75 97.5558L13.1144 89.918L13.7037 91.1039L12.097 93.0211L14.2496 97.3526L16.7483 97.2301L17.3376 98.4161L7.40565 98.8763L6.75 97.5558Z" fill="#E303F7"/>
<path fill-rule="evenodd" clip-rule="evenodd" d="M4.1337 91.616L10.575 86.0842L2.13174 85.2277L1.74609 83.9961L11.6006 85.0019L12.0379 86.3984L4.51935 92.8476L4.1337 91.616Z" fill="#E303F7"/>
<path fill-rule="evenodd" clip-rule="evenodd" d="M0.21875 73.9379L1.34897 73.7859L2.08341 79.255L4.82349 78.8873L4.14297 73.8177L5.25061 73.6693L5.93068 78.7385L8.84262 78.3478L8.10035 72.8215L9.23104 72.6699L10.1323 79.3835L1.11215 80.5944L0.21875 73.9379Z" fill="#E303F7"/>
<mask id="mask1" mask-type="alpha" maskUnits="userSpaceOnUse" x="0" y="62" width="10" height="9">
<path fill-rule="evenodd" clip-rule="evenodd" d="M0 62.8779H9.28952V70.0776H0V62.8779Z" fill="white"/>
</mask>
<g mask="url(#mask1)">
<path fill-rule="evenodd" clip-rule="evenodd" d="M3.96015 64.644C3.70352 64.3182 3.32985 64.1487 2.83823 64.1358C2.33923 64.1224 1.95312 64.2772 1.67944 64.6002C1.40575 64.9232 1.25969 65.4222 1.24172 66.0981L1.17261 68.6659L4.2472 68.7488L4.3177 66.123C4.3352 65.4628 4.21633 64.9697 3.96015 64.644V64.644ZM0.107816 65.8369C0.134078 64.8546 0.38657 64.11 0.864829 63.6045C1.34309 63.0986 2.00104 62.8572 2.8373 62.8793C3.3598 62.8936 3.81317 63.0323 4.1979 63.2963C4.58263 63.5603 4.84572 63.9169 4.98717 64.3662C5.08899 64.0082 5.25947 63.7377 5.49906 63.5562C5.73773 63.3742 6.08468 63.259 6.5399 63.2097C6.86381 63.1645 7.29829 63.1337 7.84428 63.1175C8.15944 63.1106 8.41561 63.0968 8.61189 63.0751C8.80817 63.0535 9.00353 63.0028 9.19797 62.9236L9.28966 62.9259L9.25695 64.1584C9.09384 64.2229 8.90816 64.268 8.6999 64.2934C8.4921 64.3182 8.19215 64.3408 7.79959 64.3611C7.37616 64.3883 7.08358 64.4072 6.92232 64.4182C6.48323 64.4602 6.16208 64.5302 5.95981 64.6288C5.75754 64.7269 5.61701 64.8882 5.53776 65.113C5.45898 65.3374 5.4129 65.6839 5.40046 66.152L5.32997 68.7779L9.13024 68.8797L9.09799 70.0776L0 69.833L0.107816 65.8369Z" fill="#E303F7"/>
</g>
<path fill-rule="evenodd" clip-rule="evenodd" d="M2.63017 55.1316L6.57466 57.8897L7.3349 54.1185L2.63017 55.1316ZM1.54556 54.1608L11.2582 52.0312L10.9956 53.3292L8.55082 53.8586L7.59384 58.6006L9.6428 60.0363L9.38063 61.3347L1.25391 55.6058L1.54556 54.1608Z" fill="#E303F7"/>
<path fill-rule="evenodd" clip-rule="evenodd" d="M9.8092 49.7348C9.00104 49.8164 8.16524 49.6869 7.30087 49.3459C6.45816 49.0137 5.77625 48.5387 5.25652 47.9208C4.73633 47.303 4.41842 46.5976 4.30185 45.8051C4.18528 45.0121 4.29033 44.2012 4.617 43.3723C4.86765 42.7369 5.21505 42.1969 5.6583 41.7528C6.102 41.3086 6.60468 40.9971 7.16633 40.8184C7.72753 40.6396 8.31038 40.6115 8.91442 40.7336L8.45367 41.9016C8.07954 41.8449 7.71048 41.8915 7.34603 42.0407C6.98203 42.19 6.65167 42.4209 6.35541 42.7332C6.05869 43.0452 5.82739 43.4124 5.66106 43.8335C5.42423 44.4339 5.35097 45.0176 5.44128 45.5853C5.53067 46.1534 5.77256 46.6593 6.16696 47.1039C6.56091 47.5481 7.07603 47.8955 7.71186 48.1461C8.39055 48.4138 9.0379 48.5249 9.65439 48.4788C10.2709 48.4332 10.8141 48.2388 11.2836 47.8955C11.7531 47.5527 12.1047 47.0846 12.3383 46.4916C12.547 45.9631 12.6179 45.4485 12.5511 44.9476C12.4848 44.4468 12.3042 44.004 12.0102 43.6202C11.7162 43.2359 11.3394 42.9447 10.8809 42.7475L9.76958 45.5655L8.79463 45.1808L10.3621 41.2059L14.766 42.9424L14.3771 43.928L12.9478 43.3769C13.7979 44.3394 13.9431 45.5314 13.3823 46.9528C13.0616 47.7669 12.5875 48.4138 11.9609 48.8935C11.3347 49.3727 10.6174 49.6533 9.8092 49.7348" fill="#E303F7"/>
<path fill-rule="evenodd" clip-rule="evenodd" d="M11.7308 30.21L12.703 30.8057L9.82054 35.5104L12.1782 36.9549L14.8501 32.5939L15.8025 33.1777L13.1306 37.5382L15.6352 39.073L18.5481 34.3194L19.5198 34.9151L15.9817 40.6902L8.22266 35.9362L11.7308 30.21Z" fill="#E303F7"/>
<path fill-rule="evenodd" clip-rule="evenodd" d="M22.4166 27.8187C21.6453 27.5634 20.9349 27.1036 20.2847 26.4392C19.6512 25.7918 19.2227 25.08 19.0006 24.3036C18.7786 23.5273 18.7758 22.7532 18.9928 21.9819C19.2103 21.2106 19.6379 20.513 20.2741 19.8901C20.7625 19.4118 21.2998 19.0607 21.8863 18.8364C22.4724 18.612 23.0585 18.5327 23.6441 18.5986C24.2302 18.6645 24.7734 18.8769 25.2747 19.2354L24.3771 20.1136C24.0588 19.909 23.7031 19.8007 23.3096 19.7883C22.9161 19.7758 22.5203 19.8518 22.1218 20.0159C21.7237 20.1799 21.3629 20.4204 21.039 20.7374C20.5778 21.1885 20.2723 21.6916 20.1226 22.2468C19.9724 22.8016 19.9871 23.3628 20.1654 23.9295C20.3442 24.4962 20.6722 25.0238 21.1505 25.5122C21.6605 26.0333 22.2065 26.3991 22.788 26.6092C23.3695 26.8189 23.9445 26.8631 24.5135 26.7419C25.0821 26.6203 25.594 26.3365 26.0501 25.8904C26.4565 25.4933 26.7311 25.0523 26.8749 24.5676C27.0182 24.0834 27.0343 23.6056 26.9228 23.1347C26.8113 22.6638 26.5864 22.2445 26.2478 21.8768L24.0827 23.9958L23.3497 23.2467L26.404 20.2578L29.7154 23.6415L28.9579 24.3824L27.8784 23.2955C28.2617 24.5216 27.9069 25.6688 26.8145 26.7378C26.1893 27.3501 25.4926 27.7473 24.7245 27.9293C23.9569 28.1108 23.1875 28.0739 22.4166 27.8187" fill="#E303F7"/>
<path fill-rule="evenodd" clip-rule="evenodd" d="M33.0926 14.7369C33.2147 14.3314 33.1359 13.9264 32.8571 13.5219C32.5784 13.1174 32.2222 12.9013 31.7886 12.8736C31.3551 12.846 30.8593 13.0238 30.3032 13.4072L28.2169 14.8438L29.9604 17.3765L32.0946 15.9067C32.6383 15.5322 32.9709 15.1424 33.0926 14.7369V14.7369ZM29.8751 12.318C30.6837 11.7609 31.4338 11.5264 32.1241 11.6149C32.8143 11.7038 33.3966 12.0922 33.8712 12.7815C34.3499 13.4772 34.5121 14.172 34.3564 14.8664C34.2007 15.5612 33.7215 16.1846 32.9184 16.7375L30.6137 18.3248L32.7299 21.3975L31.7435 22.0767L26.584 14.5844L29.8751 12.318Z" fill="#E303F7"/>
<path fill-rule="evenodd" clip-rule="evenodd" d="M51.9364 6.85059L52.3004 7.90709L42.1726 11.3987L41.8086 10.3422L51.9364 6.85059Z" fill="#E303F7"/>
</svg>
