<svg width="155" height="155" viewBox="0 0 155 155" fill="none" xmlns="http://www.w3.org/2000/svg">
<path fill-rule="evenodd" clip-rule="evenodd" d="M123.951 17.5L125 18.3983L118.802 25.6471L122.273 28.6195L121.52 29.5L117 25.6293L123.951 17.5Z" fill="#E303F7"/>
<path fill-rule="evenodd" clip-rule="evenodd" d="M127.359 27.4791C125.639 29.0271 124.936 31.3453 126.408 32.9826C127.892 34.6309 130.248 34.1983 132.076 32.5532C133.677 31.1125 134.597 28.7719 133.038 27.0394C131.491 25.3191 129.127 25.888 127.359 27.4791ZM133.112 33.6094C130.341 36.103 127.355 35.7405 125.506 33.6853C123.593 31.5593 123.898 28.5823 126.335 26.3895C128.892 24.0893 131.995 24.1729 133.93 26.3239C135.907 28.5225 135.502 31.459 133.112 33.6094Z" fill="#E303F7"/>
<path fill-rule="evenodd" clip-rule="evenodd" d="M136.416 40.4087L138.445 37.8148C138.906 37.2259 139.356 36.7399 139.793 36.2623L139.775 36.2353C139.149 36.4526 138.501 36.6653 137.835 36.8511L134.631 37.6778L136.416 40.4087ZM133.558 38.034L130.09 38.9565L129.299 37.7453L140.38 34.8994L141.304 36.3118L134.259 45.3336L133.441 44.082L135.66 41.2496L133.558 38.034Z" fill="#E303F7"/>
<path fill-rule="evenodd" clip-rule="evenodd" d="M136.469 47.361C136.556 47.7094 136.753 48.1851 136.978 48.6827C138.21 51.4065 140.401 52.1972 143.067 50.9925C145.402 49.9542 146.284 47.9678 145.067 45.2736C144.768 44.6147 144.485 44.1435 144.259 43.8394L136.469 47.361ZM144.621 42.1416C145.089 42.8648 145.593 43.7475 146.05 44.758C146.878 46.5882 147.042 48.0842 146.628 49.312C146.219 50.5547 145.309 51.5832 143.713 52.3045C142.102 53.0329 140.559 53.1312 139.234 52.6189C137.894 52.1136 136.708 50.8157 135.84 48.8974C135.431 47.9897 135.13 47.208 134.912 46.5304L144.621 42.1416Z" fill="#E303F7"/>
<path fill-rule="evenodd" clip-rule="evenodd" d="M146.558 67.3725C148.023 66.9983 149.786 66.549 151.114 66.3008L151.104 66.2533C149.786 66.1395 148.374 65.9614 146.801 65.7178L141.272 64.8685L141.066 63.8284L145.783 61.102C147.181 60.2991 148.467 59.5997 149.669 59.0494L149.662 59.0179C148.332 59.25 146.535 59.5264 144.924 59.7488L140.312 60.373L140.051 59.0648L150.824 57.6885L151.172 59.4383L146.394 62.2753C145.174 62.9773 144.08 63.5719 143.03 64.0598L143.038 64.1074C144.164 64.1614 145.406 64.3073 146.84 64.5137L152.357 65.3809L152.705 67.1314L142.211 69.9105L141.945 68.5701L146.558 67.3725Z" fill="#E303F7"/>
<path fill-rule="evenodd" clip-rule="evenodd" d="M147.671 72.5296C145.357 72.572 143.306 73.8642 143.346 76.0659C143.388 78.2844 145.452 79.5001 147.911 79.4551C150.065 79.4152 152.294 78.2484 152.251 75.9181C152.209 73.6038 150.049 72.4859 147.671 72.5296ZM148.003 80.9324C144.273 81.0012 142.255 78.7711 142.204 76.0068C142.151 73.1454 144.333 71.096 147.611 71.0356C151.051 70.9719 153.34 73.0683 153.393 75.9612C153.448 78.9189 151.218 80.8732 148.003 80.9324Z" fill="#E303F7"/>
<path fill-rule="evenodd" clip-rule="evenodd" d="M147.779 84.7246L147.596 86.1427C147.404 87.6252 148.095 88.6698 149.322 88.8286C150.709 89.0079 151.444 88.0822 151.65 86.6178C151.736 85.9486 151.734 85.4626 151.7 85.2312L147.779 84.7246ZM152.851 83.9705C152.904 84.6899 152.854 85.7043 152.729 86.6602C152.538 88.1427 152.143 89.0639 151.451 89.6547C150.903 90.1349 150.131 90.3425 149.302 90.2358C147.884 90.0519 147.059 89.0382 146.824 87.8579L146.775 87.8514C146.381 88.6428 145.553 89.0375 144.404 89.1487C142.861 89.3056 141.793 89.4271 141.35 89.5968L141.535 88.1626C141.86 88.0263 142.815 87.9067 144.193 87.7769C145.716 87.6496 146.348 87.1482 146.559 85.8952L146.727 84.5889L142.074 83.9872L142.253 82.6006L152.851 83.9705Z" fill="#E303F7"/>
<path fill-rule="evenodd" clip-rule="evenodd" d="M144.508 97.6821L145.566 93.607L141.786 92.6266L140.609 97.1684L139.473 96.874L141.001 90.979L151.484 93.6976L150.016 99.3593L148.881 99.0649L149.998 94.7564L146.686 93.8976L145.628 97.972L144.508 97.6821Z" fill="#E303F7"/>
<path fill-rule="evenodd" clip-rule="evenodd" d="M135.373 116.476L134.521 116.025L141.583 102.669L142.435 103.12L135.373 116.476Z" fill="#E303F7"/>
<path fill-rule="evenodd" clip-rule="evenodd" d="M136.33 125.113L135.415 126.171L128.107 119.854L125.081 123.357L124.193 122.589L128.134 118.029L136.33 125.113Z" fill="#E303F7"/>
<path fill-rule="evenodd" clip-rule="evenodd" d="M126.626 127.729C125.087 126 122.773 125.284 121.128 126.747C119.471 128.221 119.891 130.579 121.525 132.417C122.957 134.026 125.293 134.959 127.033 133.41C128.763 131.872 128.207 129.506 126.626 127.729ZM120.463 133.448C117.985 130.662 118.364 127.679 120.429 125.841C122.567 123.94 125.542 124.262 127.721 126.712C130.007 129.282 129.906 132.383 127.744 134.306C125.534 136.271 122.6 135.849 120.463 133.448Z" fill="#E303F7"/>
<path fill-rule="evenodd" clip-rule="evenodd" d="M113.648 136.714L116.231 138.759C116.817 139.222 117.301 139.676 117.776 140.116L117.803 140.098C117.589 139.47 117.381 138.82 117.198 138.153L116.39 134.944L113.648 136.714ZM116.04 133.868L115.137 130.394L116.353 129.609L119.136 140.71L117.718 141.626L108.734 134.528L109.991 133.717L112.811 135.952L116.04 133.868Z" fill="#E303F7"/>
<path fill-rule="evenodd" clip-rule="evenodd" d="M106.703 136.726C106.354 136.812 105.877 137.007 105.378 137.229C102.646 138.446 101.844 140.634 103.035 143.306C104.061 145.647 106.042 146.542 108.744 145.338C109.405 145.044 109.878 144.762 110.183 144.538L106.703 136.726ZM111.879 144.909C111.153 145.374 110.268 145.874 109.255 146.325C107.419 147.143 105.922 147.299 104.696 146.878C103.455 146.463 102.431 145.546 101.718 143.945C100.999 142.33 100.909 140.786 101.429 139.464C101.941 138.127 103.246 136.946 105.169 136.09C106.08 135.684 106.863 135.388 107.542 135.173L111.879 144.909Z" fill="#E303F7"/>
<path fill-rule="evenodd" clip-rule="evenodd" d="M86.632 146.712C86.9978 148.18 87.4382 149.945 87.6799 151.273L87.7268 151.264C87.849 149.947 88.0335 148.536 88.2848 146.965L89.1623 141.442L90.2038 141.24L92.9057 145.971C93.7009 147.372 94.3926 148.662 94.9378 149.866L94.9693 149.86C94.7436 148.528 94.4768 146.731 94.2621 145.119L93.663 140.503L94.9725 140.25L96.2916 151.028L94.5411 151.368L91.7299 146.575C91.0337 145.351 90.4442 144.254 89.962 143.202L89.9145 143.211C89.8547 144.336 89.7017 145.577 89.4889 147.01L88.5928 152.52L86.841 152.86L84.1172 142.354L85.4588 142.094L86.632 146.712Z" fill="#E303F7"/>
<mask id="mask0" mask-type="alpha" maskUnits="userSpaceOnUse" x="73" y="142" width="10" height="12">
<path fill-rule="evenodd" clip-rule="evenodd" d="M73.0742 142.31H82.9732V153.5H73.0742V142.31Z" fill="white"/>
</mask>
<g mask="url(#mask0)">
<path fill-rule="evenodd" clip-rule="evenodd" d="M81.4778 147.795C81.4482 145.48 80.167 143.424 77.9652 143.453C75.7467 143.482 74.5208 145.54 74.553 147.999C74.5806 150.153 75.7358 152.389 78.0655 152.357C80.3811 152.327 81.51 150.174 81.4778 147.795ZM73.075 148.083C73.0255 144.354 75.2665 142.347 78.0302 142.311C80.8915 142.273 82.9294 144.465 82.9725 147.743C83.0181 151.183 80.9095 153.462 78.0167 153.499C75.0595 153.538 73.1175 151.297 73.075 148.083Z" fill="#E303F7"/>
</g>
<path fill-rule="evenodd" clip-rule="evenodd" d="M69.2649 147.838L67.8474 147.646C66.3657 147.447 65.3159 148.132 65.1513 149.358C64.9636 150.744 65.8848 151.486 67.3492 151.699C68.0178 151.79 68.5038 151.79 68.7365 151.757L69.2649 147.838ZM69.9907 152.915C69.2701 152.965 68.2557 152.909 67.2997 152.78C65.8186 152.579 64.8993 152.179 64.3124 151.484C63.8354 150.933 63.6309 150.159 63.7428 149.331C63.935 147.913 64.9539 147.094 66.1368 146.863L66.1432 146.817C65.3532 146.417 64.9636 145.586 64.8588 144.437C64.7103 142.892 64.5952 141.822 64.4287 141.378L65.8623 141.571C65.996 141.898 66.1111 142.854 66.2326 144.233C66.3509 145.758 66.8484 146.392 68.1007 146.61L69.4077 146.787L70.0351 142.135L71.4211 142.323L69.9907 152.915Z" fill="#E303F7"/>
<path fill-rule="evenodd" clip-rule="evenodd" d="M56.337 144.5L60.4063 145.578L61.4066 141.804L56.8706 140.602L57.1714 139.469L63.0574 141.028L60.2854 151.496L54.6309 149.999L54.9311 148.865L59.2337 150.005L60.1099 146.696L56.0406 145.618L56.337 144.5Z" fill="#E303F7"/>
<path fill-rule="evenodd" clip-rule="evenodd" d="M37.5859 135.257L38.0411 134.407L51.3566 141.542L50.9008 142.392L37.5859 135.257Z" fill="#E303F7"/>
<path fill-rule="evenodd" clip-rule="evenodd" d="M32.111 138.619L31.0117 137.755L36.9819 130.161L33.3434 127.3L34.0679 126.378L38.8064 130.103L32.111 138.619Z" fill="#E303F7"/>
<path fill-rule="evenodd" clip-rule="evenodd" d="M29.0437 129.051C30.6965 127.432 31.3001 125.086 29.7598 123.513C28.2086 121.928 25.8737 122.461 24.1175 124.181C22.5785 125.688 21.7588 128.066 23.3885 129.73C25.0078 131.384 27.3433 130.714 29.0437 129.051ZM23.0368 123.17C25.7008 120.562 28.6978 120.798 30.6322 122.772C32.6327 124.816 32.454 127.803 30.1115 130.096C27.6551 132.502 24.5527 132.548 22.5283 130.482C20.4602 128.37 20.7412 125.418 23.0368 123.17Z" fill="#E303F7"/>
<path fill-rule="evenodd" clip-rule="evenodd" d="M19.4491 116.505L17.5302 119.18C17.095 119.787 16.6649 120.293 16.2483 120.787L16.267 120.813C16.8835 120.57 17.5225 120.331 18.1795 120.118L21.3462 119.159L19.4491 116.505ZM22.4043 118.759L25.8295 117.693L26.6703 118.87L15.718 122.174L14.7363 120.801L21.4008 111.495L22.27 112.711L20.1704 115.634L22.4043 118.759Z" fill="#E303F7"/>
<path fill-rule="evenodd" clip-rule="evenodd" d="M19.1116 109.579C19.0106 109.234 18.7934 108.767 18.5478 108.28C17.2036 105.61 14.9806 104.911 12.368 106.227C10.0788 107.361 9.27907 109.383 10.6091 112.024C10.9338 112.671 11.2372 113.129 11.4751 113.424L19.1116 109.579ZM11.1851 115.135C10.6876 114.432 10.1456 113.57 9.64678 112.58C8.74357 110.786 8.51664 109.299 8.8805 108.054C9.236 106.796 10.1026 105.73 11.6679 104.942C13.2461 104.147 14.7845 103.985 16.1294 104.441C17.4896 104.89 18.7284 106.137 19.6754 108.018C20.1234 108.908 20.4558 109.676 20.7026 110.344L11.1851 115.135Z" fill="#E303F7"/>
<path fill-rule="evenodd" clip-rule="evenodd" d="M8.19538 89.9991C6.74638 90.433 5.00424 90.9557 3.68831 91.2585L3.69988 91.3054C5.0216 91.3652 6.4391 91.4841 8.02052 91.6622L13.5774 92.2806L13.8287 93.3118L9.22845 96.231C7.86624 97.0905 6.6101 97.842 5.43302 98.4424L5.4401 98.4733C6.75988 98.1859 8.54381 97.8355 10.1432 97.5469L14.7249 96.7318L15.0392 98.0284L4.33631 99.8496L3.91524 98.1158L8.57017 95.0841C9.76074 94.332 10.8285 93.6923 11.8571 93.1613L11.8462 93.115C10.7192 93.1067 9.47274 93.0128 8.03145 92.8663L2.48552 92.2292L2.06445 90.4948L12.4312 87.2837L12.7539 88.6112L8.19538 89.9991Z" fill="#E303F7"/>
<path fill-rule="evenodd" clip-rule="evenodd" d="M6.87016 84.9108C9.17995 84.7707 11.1728 83.3943 11.0397 81.1964C10.9054 78.983 8.79295 77.8554 6.33852 78.0039C4.18945 78.1338 2.01145 79.3932 2.15288 81.719C2.29238 84.0288 4.49609 85.0542 6.87016 84.9108ZM6.18552 76.5324C9.90702 76.3068 12.0162 78.4488 12.184 81.2073C12.3563 84.0629 10.2644 86.2023 6.99166 86.3997C3.56073 86.6086 1.18473 84.6106 1.01052 81.7235C0.830519 78.7722 2.97702 76.7266 6.18552 76.5324Z" fill="#E303F7"/>
<path fill-rule="evenodd" clip-rule="evenodd" d="M6.25114 72.7043L6.37586 71.2791C6.50571 69.7902 5.77221 68.7732 4.53921 68.6659C3.14614 68.5437 2.44993 69.4996 2.30464 70.9711C2.24679 71.6436 2.26864 72.1296 2.31236 72.3597L6.25114 72.7043ZM1.21436 73.6673C1.13143 72.9499 1.13979 71.9341 1.22336 70.9737C1.35386 69.4849 1.71064 68.5476 2.37857 67.9285C2.90507 67.4264 3.66879 67.1866 4.50129 67.2586C5.9265 67.384 6.79179 68.3631 7.07721 69.5331L7.12479 69.5376C7.48671 68.7301 8.29864 68.3014 9.44164 68.1426C10.9774 67.9227 12.0407 67.7569 12.4766 67.5698L12.3506 69.0104C12.0304 69.1602 11.0816 69.319 9.70971 69.5054C8.19257 69.6957 7.58121 70.2229 7.42243 71.4835L7.30864 72.7962L11.9835 73.2057L11.862 74.5988L1.21436 73.6673Z" fill="#E303F7"/>
<path fill-rule="evenodd" clip-rule="evenodd" d="M8.97392 59.6231L8.08935 63.7399L11.9073 64.5602L12.8928 59.9715L14.0396 60.2177L12.7616 66.1738L2.16992 63.8993L3.39778 58.1792L4.54592 58.4254L3.61056 62.7788L6.95728 63.4969L7.84185 59.3801L8.97392 59.6231Z" fill="#E303F7"/>
<path fill-rule="evenodd" clip-rule="evenodd" d="M17.3112 40.4663L18.1816 40.8816L11.6881 54.5217L10.8164 54.1071L17.3112 40.4663Z" fill="#E303F7"/>
<path fill-rule="evenodd" clip-rule="evenodd" d="M16.0098 31.8658L16.8802 30.771L24.4428 36.7843L27.3241 33.1599L28.2427 33.8901L24.4903 38.6087L16.0098 31.8658Z" fill="#E303F7"/>
<path fill-rule="evenodd" clip-rule="evenodd" d="M25.5912 28.8584C27.2009 30.5208 29.5441 31.1379 31.1262 29.6066C32.7198 28.0631 32.2004 25.7244 30.4891 23.9579C28.9906 22.4105 26.6172 21.5767 24.9425 23.198C23.2801 24.8084 23.9358 27.1496 25.5912 28.8584ZM31.5067 22.883C34.1013 25.5618 33.8487 28.5588 31.8629 30.4822C29.8077 32.4725 26.821 32.2771 24.5388 29.9216C22.1467 27.4505 22.1165 24.3468 24.1949 22.334C26.3195 20.2756 29.2709 20.5732 31.5067 22.883Z" fill="#E303F7"/>
<path fill-rule="evenodd" clip-rule="evenodd" d="M38.182 19.34L35.5167 17.4069C34.9118 16.9685 34.4097 16.5365 33.9166 16.1173L33.8903 16.136C34.1301 16.7537 34.366 17.3934 34.5762 18.0523L35.518 21.2229L38.182 19.34ZM35.9127 22.2823L36.9606 25.7132L35.7796 26.5477L32.5332 15.5799L33.9108 14.606L43.1802 21.3174L41.9601 22.1801L39.0492 20.0657L35.9127 22.2823Z" fill="#E303F7"/>
<path fill-rule="evenodd" clip-rule="evenodd" d="M45.118 19.0351C45.4632 18.9354 45.9318 18.7213 46.421 18.4777C49.0979 17.1483 49.8095 14.9291 48.5078 12.3095C47.3853 10.0132 45.368 9.20256 42.7195 10.5185C42.0721 10.8399 41.6105 11.1408 41.3155 11.3767L45.118 19.0351ZM39.6055 11.0778C40.3113 10.5841 41.1747 10.0466 42.1685 9.55356C43.9679 8.65999 45.4561 8.44077 46.6988 8.81106C47.9555 9.17363 49.0169 10.0466 49.796 11.6152C50.5829 13.1992 50.7359 14.7376 50.2737 16.0811C49.8166 17.4376 48.5618 18.6706 46.6769 19.6078C45.784 20.0508 45.0145 20.3793 44.3453 20.6216L39.6055 11.0778Z" fill="#E303F7"/>
<path fill-rule="evenodd" clip-rule="evenodd" d="M64.7551 8.22871C64.3289 6.77714 63.8159 5.03179 63.5201 3.71457L63.4739 3.72614C63.4064 5.04657 63.2797 6.46343 63.0926 8.04421L62.4427 13.5985L61.4109 13.8428L58.5174 9.22643C57.665 7.85971 56.9199 6.59907 56.3272 5.41879L56.2964 5.42586C56.5754 6.74693 56.9167 8.53214 57.197 10.1341L57.9858 14.7203L56.6872 15.0276L54.9258 4.31371L56.6621 3.90293L59.6675 8.57457C60.4132 9.769 61.0464 10.8406 61.5716 11.8724L61.6186 11.8609C61.6327 10.7352 61.7343 9.48871 61.8879 8.04871L62.5571 2.506L64.2935 2.09521L67.4461 12.4793L66.1166 12.7943L64.7551 8.22871Z" fill="#E303F7"/>
<path fill-rule="evenodd" clip-rule="evenodd" d="M69.8643 6.92657C69.991 9.23765 71.3564 11.2389 73.5556 11.1186C75.7696 10.9959 76.9094 8.88922 76.7744 6.43414C76.6561 4.28379 75.4096 2.09872 73.0831 2.22665C70.772 2.35393 69.7345 4.55186 69.8643 6.92657ZM78.2472 6.28886C78.4522 10.0123 76.298 12.1099 73.5382 12.2616C70.6814 12.4191 68.5535 10.3144 68.3735 7.04036C68.1852 3.60686 70.196 1.24243 73.0844 1.08429C76.0377 0.921645 78.0717 3.07972 78.2472 6.28886Z" fill="#E303F7"/>
<path fill-rule="evenodd" clip-rule="evenodd" d="M82.0589 6.37647L83.4834 6.50826C84.971 6.64519 85.9899 5.91683 86.1044 4.68447C86.2329 3.29205 85.2815 2.59069 83.8106 2.43898C83.1382 2.37662 82.6522 2.39655 82.4221 2.43962L82.0589 6.37647ZM81.1203 1.33455C81.8377 1.25612 82.8534 1.26898 83.8132 1.35769C85.3014 1.49526 86.2368 1.85655 86.8526 2.5264C87.3528 3.05676 87.5887 3.82112 87.5109 4.65298C87.3798 6.07755 86.3962 6.93898 85.2249 7.21798L85.2204 7.26619C86.0259 7.63069 86.4509 8.44519 86.6032 9.58883C86.816 11.1259 86.9761 12.1892 87.1619 12.6263L85.7219 12.4933C85.574 12.1731 85.4197 11.2223 85.2397 9.85048C85.0571 8.33205 84.5332 7.71876 83.2732 7.55419L81.9611 7.43269L81.5291 12.1056L80.1367 11.9764L81.1203 1.33455Z" fill="#E303F7"/>
<path fill-rule="evenodd" clip-rule="evenodd" d="M95.1325 9.17038L91.0195 8.26331L90.178 12.0787L94.7622 13.0892L94.5095 14.2355L88.5586 12.9234L90.8915 2.34131L96.6072 3.60131L96.3539 4.74752L92.0056 3.78902L91.2676 7.13252L95.3819 8.03959L95.1325 9.17038Z" fill="#E303F7"/>
<path fill-rule="evenodd" clip-rule="evenodd" d="M114.231 17.6115L113.811 18.48L100.205 11.9081L100.624 11.0396L114.231 17.6115Z" fill="#E303F7"/>
</svg>
