<svg width="212" height="212" viewBox="0 0 212 212" fill="none" xmlns="http://www.w3.org/2000/svg">
<path fill-rule="evenodd" clip-rule="evenodd" d="M84.5622 6L115.23 55.7058L161.552 20.1294L148.094 76.9689L206 84.5622L156.294 115.23L191.871 161.552L135.04 148.094L127.438 206L96.7704 156.303L50.4567 191.871L63.9059 135.04L6 127.447L55.7058 96.7704L20.1294 50.4567L76.9597 63.9151L84.5622 6Z" stroke="#5CFC61" stroke-width="3.5"/>
<path d="M87.813 102.519C87.7589 102.33 87.6831 102.168 87.5856 102.031C87.4854 101.885 87.3404 101.751 87.1506 101.631C86.9607 101.511 86.7202 101.4 86.4291 101.299C86.1444 101.186 85.784 101.081 85.3481 100.983C84.9416 100.886 84.5902 100.778 84.2939 100.659C83.9977 100.54 83.7392 100.4 83.5185 100.24C83.3068 100.078 83.1304 99.8855 82.9891 99.6639C82.8569 99.4397 82.7483 99.1795 82.6634 98.8834C82.5554 98.5066 82.5339 98.1438 82.5989 97.7951C82.664 97.4463 82.8047 97.1244 83.0211 96.8293C83.2374 96.5342 83.5218 96.273 83.8741 96.0458C84.2265 95.8185 84.6359 95.638 85.1025 95.5042C85.6677 95.3422 86.1952 95.2686 86.6849 95.2835C87.1811 95.2869 87.6645 95.3473 88.1351 95.4648L87.7766 96.7036C87.3945 96.5899 87.0047 96.5172 86.6072 96.4855C86.2187 96.4512 85.7867 96.5023 85.3112 96.6386C84.7729 96.793 84.3757 97.0331 84.1196 97.359C83.8699 97.6733 83.7978 98.0144 83.9033 98.3823C83.9522 98.5527 84.0241 98.702 84.1191 98.8301C84.2141 98.9582 84.3392 99.0729 84.4944 99.174C84.6586 99.2726 84.8645 99.364 85.112 99.4484C85.3595 99.5328 85.6634 99.6107 86.0237 99.6821C86.5302 99.7894 86.9605 99.9184 87.3145 100.069C87.6659 100.211 87.9558 100.376 88.1842 100.563C88.4215 100.747 88.6089 100.96 88.7463 101.203C88.8837 101.445 88.9961 101.718 89.0836 102.023C89.202 102.436 89.228 102.832 89.1617 103.21C89.0954 103.588 88.9476 103.936 88.7184 104.255C88.4867 104.564 88.1825 104.84 87.8058 105.084C87.4265 105.319 86.9902 105.507 86.4967 105.649C85.8508 105.834 85.2431 105.916 84.6739 105.895C84.1021 105.865 83.5738 105.749 83.089 105.548L83.6262 104.273C84.011 104.463 84.4297 104.586 84.8823 104.641C85.3413 104.684 85.8176 104.635 86.311 104.493C86.8942 104.326 87.3202 104.068 87.5891 103.719C87.8644 103.359 87.939 102.958 87.813 102.519ZM96.8656 97.8549L92.3708 99.1438L92.8481 103.653L91.5697 104.02L90.5237 94.1245L91.8022 93.7579L92.2427 97.9863L96.7376 96.6974L96.297 92.469L97.5755 92.1024L98.6215 101.997L97.343 102.364L96.8656 97.8549ZM100.37 100.957L102.979 90.553L104.419 90.1401L109.137 98.822L107.993 99.4558L106.656 96.9264L102.296 98.1767L101.566 101.27L100.37 100.957ZM102.593 96.9264L106.119 95.9154L103.863 91.6541L102.593 96.9264ZM109.806 88.7411C110.189 88.5536 110.549 88.3872 110.886 88.242C111.232 88.0942 111.643 87.9522 112.118 87.8158C112.63 87.6692 113.096 87.6034 113.518 87.6183C113.949 87.6308 114.33 87.706 114.661 87.8442C114.991 87.9823 115.267 88.1801 115.486 88.4376C115.703 88.6861 115.859 88.9764 115.954 89.3083C116.07 89.712 116.1 90.087 116.044 90.4332C115.997 90.7768 115.878 91.0923 115.689 91.3797C115.508 91.6645 115.263 91.9243 114.951 92.1592C114.637 92.3852 114.279 92.59 113.875 92.7737C114.292 92.8387 114.637 92.9582 114.91 93.1323C115.183 93.3064 115.415 93.5068 115.607 93.7336C115.795 93.9513 115.963 94.18 116.109 94.4196C116.253 94.6503 116.404 94.8546 116.562 95.0326C116.717 95.2017 116.893 95.3259 117.091 95.4052C117.288 95.4845 117.535 95.4817 117.831 95.3968L117.677 96.6354C117.21 96.7692 116.822 96.7689 116.511 96.6346C116.201 96.5003 115.92 96.2993 115.668 96.0316C115.426 95.7613 115.19 95.4647 114.962 95.1419C114.742 94.8164 114.484 94.5263 114.188 94.2715C113.9 94.014 113.557 93.831 113.157 93.7224C112.756 93.6139 112.256 93.6457 111.655 93.8181L112.105 98.1311L110.827 98.4977L109.806 88.7411ZM112.342 88.9021C112.109 88.969 111.896 89.0397 111.704 89.1143C111.521 89.1863 111.349 89.2646 111.189 89.3494L111.534 92.6875L112.651 92.3672C113.441 92.1408 114.023 91.7992 114.397 91.3425C114.779 90.8831 114.892 90.3798 114.736 89.8325C114.609 89.3929 114.332 89.0842 113.902 88.9064C113.481 88.7261 112.961 88.7246 112.342 88.9021ZM118.588 86.0773L124.173 84.4758L124.301 85.6334L119.981 86.8721L120.305 89.8814L124.006 88.8202L124.126 89.9508L120.425 91.012L120.784 94.4481L125.091 93.2133L125.219 94.3708L119.634 95.9723L118.588 86.0773ZM82.8792 123.658L85.4884 113.253L86.9284 112.841L91.6462 121.522L90.5026 122.156L89.1656 119.627L84.8053 120.877L84.0756 123.97L82.8792 123.658ZM85.1022 119.627L88.6281 118.616L86.3722 114.354L85.1022 119.627ZM92.3153 111.441C92.6985 111.254 93.0586 111.088 93.3956 110.942C93.7416 110.795 94.1524 110.653 94.6279 110.516C95.1393 110.37 95.6059 110.304 96.0277 110.319C96.4584 110.331 96.8393 110.406 97.1702 110.545C97.5011 110.683 97.7763 110.881 97.9957 111.138C98.2126 111.387 98.3687 111.677 98.4639 112.009C98.5796 112.412 98.6095 112.787 98.5534 113.134C98.5063 113.477 98.388 113.793 98.1985 114.08C98.018 114.365 97.7721 114.625 97.4608 114.86C97.1469 115.086 96.7882 115.29 96.3845 115.474C96.8012 115.539 97.1462 115.659 97.4194 115.833C97.6927 116.007 97.9249 116.207 98.1162 116.434C98.3048 116.652 98.4724 116.88 98.6187 117.12C98.7625 117.351 98.9134 117.555 99.0712 117.733C99.2265 117.902 99.4029 118.026 99.6004 118.106C99.7979 118.185 100.045 118.182 100.341 118.097L100.186 119.336C99.7197 119.47 99.3312 119.469 99.0208 119.335C98.7105 119.201 98.4295 119 98.178 118.732C97.9354 118.462 97.6999 118.165 97.4714 117.842C97.2518 117.517 96.9939 117.227 96.6975 116.972C96.41 116.714 96.0663 116.531 95.6662 116.423C95.2661 116.314 94.7655 116.346 94.1644 116.518L94.6146 120.831L93.3362 121.198L92.3153 111.441ZM94.852 111.603C94.6187 111.669 94.406 111.74 94.2137 111.815C94.0305 111.887 93.8588 111.965 93.6986 112.05L94.0441 115.388L95.1611 115.068C95.9506 114.841 96.5323 114.5 96.9062 114.043C97.2891 113.584 97.4021 113.08 97.2452 112.533C97.1191 112.093 96.8412 111.785 96.4116 111.607C95.9909 111.426 95.471 111.425 94.852 111.603ZM99.576 109.214L106.641 107.188L106.764 108.376L103.87 109.206L104.794 117.913L103.515 118.279L102.592 109.573L99.6983 110.402L99.576 109.214ZM109.505 116.562L108.459 106.667L109.737 106.3L110.783 116.195L109.505 116.562ZM116.091 105.512C115.598 105.654 115.168 105.898 114.802 106.246C114.444 106.591 114.162 107.012 113.955 107.509C113.756 108.002 113.647 108.553 113.627 109.161C113.605 109.759 113.688 110.386 113.875 111.041C114.014 111.526 114.201 111.938 114.434 112.279C114.665 112.611 114.929 112.87 115.225 113.057C115.522 113.244 115.842 113.361 116.185 113.408C116.535 113.444 116.894 113.409 117.262 113.303C117.684 113.182 118.039 113.017 118.329 112.808C118.627 112.596 118.911 112.365 119.178 112.113L119.725 113.209C119.437 113.456 119.107 113.692 118.734 113.915C118.361 114.139 117.919 114.324 117.407 114.47C116.851 114.63 116.323 114.684 115.823 114.634C115.323 114.583 114.863 114.433 114.442 114.185C114.021 113.937 113.65 113.591 113.329 113.149C113.015 112.696 112.766 112.151 112.584 111.514C112.352 110.706 112.257 109.918 112.299 109.149C112.34 108.379 112.503 107.677 112.787 107.042C113.08 106.405 113.485 105.852 114.001 105.383C114.526 104.912 115.152 104.573 115.879 104.364C116.417 104.21 116.904 104.148 117.34 104.178C117.785 104.206 118.164 104.258 118.477 104.333L118.199 105.549C117.881 105.455 117.558 105.397 117.231 105.375C116.902 105.343 116.522 105.389 116.091 105.512ZM120.553 103.199L121.832 102.832L122.751 111.525L127.071 110.287L127.197 111.489L121.599 113.094L120.553 103.199ZM127.862 101.103L133.447 99.5016L133.575 100.659L129.255 101.898L129.579 104.907L133.28 103.846L133.4 104.977L129.699 106.038L130.058 109.474L134.365 108.239L134.493 109.397L128.908 110.998L127.862 101.103Z" fill="#E303F7"/>
</svg>
