<svg width="66" height="66" viewBox="0 0 66 66" fill="none" xmlns="http://www.w3.org/2000/svg">
<path fill-rule="evenodd" clip-rule="evenodd" d="M37.3092 0.941895L32.9978 25.2911L28.6899 0.941895L25.8894 1.43286L30.2009 25.7856L17.788 4.37156L15.3269 5.78754L27.7433 27.2016L8.72222 11.3056L6.89691 13.4758L25.9144 29.3683L2.58189 20.908L1.61387 23.5692L24.9464 32.0259H0.117188V34.8579H24.9464L1.61387 43.3146L2.58189 45.9758L25.9144 37.5155L6.89691 53.4115L8.72222 55.5817L27.7433 39.6822L15.3269 61.0962L17.788 62.5122L30.2009 41.1017L25.8894 65.4474L28.6899 65.9419L32.9978 41.5927L37.3092 65.9419L40.1097 65.4474L35.8018 41.1017L48.211 62.5122L50.6722 61.0962L38.2594 39.6822L57.2769 55.5817L59.1022 53.4115L40.0882 37.5155L63.4136 45.9758L64.3888 43.3146L41.0563 34.8579H65.8819V32.0259H41.0563L64.3888 23.5692L63.4136 20.908L40.0882 29.3647L59.1022 13.4758L57.2769 11.3056L38.2594 27.2016L50.6722 5.78754L48.211 4.37156L35.8018 25.7856L40.1097 1.43286L37.3092 0.941895Z" fill="#5CFC61"/>
</svg>
